<?xml version="1.0" encoding="UTF-8"?>
<svg width="32px" height="32px" viewBox="0 0 32 32" version="1.1" xmlns="http://www.w3.org/2000/svg" xmlns:xlink="http://www.w3.org/1999/xlink">
    <title>ShieldGateway</title>
    <g id="Page-1" stroke="none" stroke-width="1" fill="none" fill-rule="evenodd">
        <g id="shield-gateway">
            <path d="M16,2 L28,7 C28,16.8 23.5,25.5 16,29 C8.5,25.5 4,16.8 4,7 L16,2 Z" id="Path" fill="#3772FF" fill-rule="nonzero"></path>
            <path d="M16,4 L25.5,8 C25.5,16 22,23 16,26 C10,23 6.5,16 6.5,8 L16,4 Z" id="Path" fill="#FFFFFF" fill-rule="nonzero"></path>
            <path d="M16,6 L23,9 C23,15.2 20.5,21 16,23.5 C11.5,21 9,15.2 9,9 L16,6 Z" id="Path" fill="#3772FF" fill-rule="nonzero"></path>
            <path d="M14,12 L18,12 L18,18 L14,18 L14,12 Z" id="Rectangle" fill="#FFFFFF"></path>
            <circle id="Oval" fill="#FFFFFF" cx="16" cy="10" r="1.5"></circle>
        </g>
    </g>
</svg> 